<?xml version="1.0" encoding="utf-8"?>
<!-- Generator: Adobe Illustrator 25.0.1, SVG Export Plug-In . SVG Version: 6.00 Build 0)  -->
<svg version="1.1" id="Layer_1" xmlns="http://www.w3.org/2000/svg" xmlns:xlink="http://www.w3.org/1999/xlink" x="0px" y="0px"
	 viewBox="0 0 85.04 85.04" style="enable-background:new 0 0 85.04 85.04;" xml:space="preserve">
<style type="text/css">
	.st0{opacity:0.02;fill:#1B3765;stroke:#1B3765;stroke-width:0.2;enable-background:new    ;}
	.st1{fill:#87AC3F;}
</style>
<path class="st0" d="M24.36,30.96L62.32,41.5L48.19,65.05c-0.25,0.42-0.38,0.89-0.38,1.38c0,10.26,8.35,18.61,18.61,18.61
	c10.26,0,18.61-8.35,18.61-18.61c0-0.49-0.13-0.96-0.38-1.38l-0.17,0.1l0.17-0.1L72.17,44.24l9.47,2.63c0.24,0.07,0.48,0.1,0.72,0.1
	c1.17,0,2.25-0.78,2.58-1.96l-0.19-0.05l0.19,0.05c0.4-1.42-0.44-2.9-1.86-3.3l-15.96-4.43L45.2,31.19V3.26
	c0-0.7-0.13-1.51-0.53-2.15C44.26,0.46,43.58,0,42.52,0c-0.59,0-1.06,0.15-1.44,0.4c-0.37,0.25-0.63,0.61-0.82,0.99
	c-0.36,0.77-0.42,1.7-0.42,2.4V29.7L19.3,23.99L3.39,19.58c-1.42-0.4-2.9,0.44-3.3,1.86h0c-0.4,1.42,0.44,2.9,1.86,3.3l12.55,3.49
	L0.38,51.77c0,0,0,0,0,0C0.13,52.18,0,52.66,0,53.15l0,0h0.2c0,4.92,1.92,9.54,5.39,13.02c3.48,3.48,8.1,5.39,13.02,5.39
	c10.15,0,18.42-8.26,18.42-18.42c0-0.45-0.12-0.89-0.35-1.28L24.36,30.96z M79.41,69.1c-1.24,6.03-6.59,10.58-12.99,10.58
	S54.68,75.14,53.44,69.1H79.41z M55.22,63.75l11.21-18.68l11.21,18.68H55.22z M29.82,50.47H7.4l11.21-18.68L29.82,50.47z
	 M18.61,66.41c-6.39,0-11.74-4.55-12.99-10.58H31.6C30.36,61.85,25.01,66.41,18.61,66.41z"/>
<path class="st1" d="M59.58,30.98c-1.49-1.4-3.92-1.4-5.41,0L37.73,46.42l-6.86-6.45c-1.49-1.4-3.92-1.4-5.41,0
	c-1.5,1.4-1.5,3.68,0,5.09l9.57,8.99c0.75,0.7,1.73,1.05,2.71,1.05c0.98,0,1.96-0.35,2.71-1.05l19.14-17.99
	C61.08,34.66,61.08,32.39,59.58,30.98z"/>
</svg>
